{"title":"Ankana - Asian throatfucked &amp; Anally Abused","uid":10792222,"size":307247797,"categoryP":"porn","categoryS":"movie_clips","magnet":"?xt=urn:btih:bc21ea5b7ff03d63c45915a33aef16b3ec7fdd02&amp;dn=Ankana+-+Asian+throatfucked+%26amp%3B+Anally+Abused&amp;tr=udp%3A%2F%2Ftracker.openbittorrent.com%3A80&amp;tr=udp%3A%2F%2Fopen.demonii.com%3A1337&amp;tr=udp%3A%2F%2Ftracker.coppersurfer.tk%3A6969&amp;tr=udp%3A%2F%2Fexodus.desync.com%3A6969","seeders":3,"leechers":2,"uploader":"ThousandPeers","files":19,"time":1408261949,"description":"Format                                   : Windows Media\nFile size                                : 261 MiB\nDuration                                 : 37mn 8s\nOverall bit rate mode                    : Variable\nOverall bit rate                         : 982 Kbps\nMaximum Overall bit rate                 : 12.9 Mbps\nEncoded date                             : UTC 2006-11-12 01:44:13.860\n\nVideo\nID                                       : 2\nFormat                                   : VC-1\nFormat profile                           : MP@ML\nCodec ID                                 : WMV3\nCodec ID/Info                            : Windows Media Video 9\nCodec ID/Hint                            : WMV3\nDescription of the codec                 : Windows Media Video 9\nDuration                                 : 37mn 8s\nBit rate mode                            : Variable\nBit rate                                 : 658 Kbps\nWidth                                    : 720 pixels\nHeight                                   : 576 pixels\nDisplay aspect ratio                     : 5:4\nFrame rate                               : 25.000 fps\nStandard                                 : PAL\nBit depth                                : 8 bits\nScan type                                : Progressive\nCompression mode                         : Lossy\nBits/(Pixel*Frame)                       : 0.063\nStream size                              : 175 MiB (67%)\nLanguage                                 : English (US)\n\nAudio\nID                                       : 1\nFormat                                   : WMA\nFormat version                           : Version 2\nCodec ID                                 : 161\nCodec ID/Info                            : Windows Media Audio\nDescription of the codec                 : Windows Media Audio 9.1 - VBR Quality 90, 44 kHz, stereo 1-pass VBR\nDuration                                 : 37mn 8s\nBit rate mode                            : Variable\nBit rate                                 : 317 Kbps\nChannel(s)                               : 2 channels\nSampling rate                            : 44.1 KHz\nBit depth                                : 16 bits\nStream size                              : 84.2 MiB (32%)\nLanguage                                 : English (US)\n","torrent":{"xt":"urn:btih:bc21ea5b7ff03d63c45915a33aef16b3ec7fdd02","amp;dn":"Ankana+-+Asian+throatfucked+%26amp%3B+Anally+Abused","amp;tr":["udp%3A%2F%2Ftracker.openbittorrent.com%3A80","udp%3A%2F%2Fopen.demonii.com%3A1337","udp%3A%2F%2Ftracker.coppersurfer.tk%3A6969","udp%3A%2F%2Fexodus.desync.com%3A6969"],"infoHash":"bc21ea5b7ff03d63c45915a33aef16b3ec7fdd02","infoHashBuffer":{"type":"Buffer","data":[188,33,234,91,127,240,61,99,196,89,21,163,58,239,22,179,236,127,221,2]},"announce":[],"urlList":[]}}